<svg width="140" height="158" viewBox="0 0 140 158" fill="none" xmlns="http://www.w3.org/2000/svg">
<path opacity="0.4" d="M131.5 109.925L71.5084 149.367L11.5166 93.4496L8.51703 36.5336L38.5129 22.5543L68.5088 8.57494L131.5 53.0093V109.925Z" fill="#F1F2C6"/>
<path opacity="0.4" fill-rule="evenodd" clip-rule="evenodd" d="M68.5602 8L132 52.7507V110.194L71.4547 150L11.0279 93.6771L8 36.2236L68.5602 8ZM39.4466 22.6701C39.7152 22.8886 40.0682 23.1758 40.4992 23.5262C41.5795 24.4046 43.1498 25.6807 45.1099 27.2716C49.03 30.4534 54.5091 34.8945 60.7445 39.9316C73.1235 49.9314 88.4823 62.2786 100.544 71.7845C106.545 68.2179 114.14 63.4689 120.274 59.5856C123.391 57.6124 126.13 55.8634 128.089 54.6078C129.069 53.9799 129.854 53.4754 130.394 53.1279C130.47 53.0791 130.541 53.0333 130.607 52.9907L68.4572 9.14988L39.4466 22.6701ZM131 53.9257C130.979 53.9393 130.957 53.9532 130.936 53.9673C130.395 54.3151 129.61 54.8199 128.629 55.4482C126.668 56.7046 123.928 58.4546 120.809 60.429C114.576 64.3749 106.827 69.2199 100.77 72.8124C95.1025 76.5379 87.8531 81.0543 82.022 84.6385C79.1042 86.432 76.5404 87.9927 74.706 89.105C73.7888 89.6612 73.054 90.1054 72.5483 90.4105C72.3202 90.5481 72.1387 90.6575 72.0082 90.7361V148.441L131 109.656V53.9257ZM71.0084 148.218V90.6837L9.07753 37.6711L12.0052 93.2221L71.0084 148.218ZM9.43109 36.6586L71.5595 89.8403C71.6824 89.7663 71.8404 89.671 72.0312 89.5558C72.5363 89.2511 73.2706 88.8073 74.1871 88.2515C76.0201 87.14 78.5822 85.5803 81.4979 83.7881C87.1333 80.3243 94.0858 75.9943 99.6503 72.352C87.6255 62.8717 72.4016 50.6325 60.1157 40.7079C53.8795 35.6703 48.3999 31.2287 44.4793 28.0464C42.519 26.4553 40.9484 25.1791 39.8679 24.3006C39.3277 23.8613 38.91 23.5215 38.6273 23.2915L38.4401 23.1392L9.43109 36.6586Z" fill="black"/>
<path d="M18.9334 61.7069C19.719 62.4638 20.3302 63.1652 20.7671 63.8111C21.2031 64.4389 21.58 65.027 21.8978 65.5755C22.0634 65.8562 22.1944 66.0777 22.2909 66.2399C22.3999 66.3968 22.501 66.5202 22.5942 66.61C22.7274 66.7383 22.8161 66.7285 22.8602 66.5807C22.9177 66.4457 22.9574 66.1983 22.9792 65.8386L23.4385 66.2812C23.4409 66.6123 23.4399 67.0094 23.4356 67.4726C23.4437 67.9304 23.4589 68.5421 23.4811 69.3077C23.5166 70.0862 23.5632 71.109 23.621 72.3762L23.1616 71.9336C23.0654 70.9409 22.864 69.8728 22.5572 68.7291C22.2504 67.5855 21.8379 66.4957 21.3197 65.4598C20.8139 64.4187 20.2081 63.5581 19.5024 62.8782C18.8633 62.2624 18.3484 62 17.958 62.0911C17.5675 62.1822 17.392 62.6622 17.4317 63.5311C17.4647 64.2552 17.6263 65.0081 17.9166 65.7897C18.206 66.5532 18.6148 67.423 19.1431 68.3993C19.6847 69.3885 20.3374 70.5798 21.1011 71.9733C21.7658 73.1503 22.364 74.2632 22.8956 75.3119C23.4272 76.3606 23.8622 77.3855 24.2006 78.3866C24.5391 79.3877 24.7306 80.3771 24.7752 81.3546C24.8297 82.5494 24.6417 83.3115 24.2111 83.641C23.7939 83.9832 23.2215 83.9942 22.494 83.674C21.7657 83.3358 20.9554 82.7369 20.0633 81.8773C19.2377 81.0819 18.5737 80.3382 18.0711 79.6463C17.5685 78.9543 17.1454 78.3303 16.8018 77.7743C16.4973 77.2386 16.2651 76.8938 16.1054 76.7398C15.9722 76.6115 15.8769 76.6149 15.8194 76.7498C15.7752 76.8977 15.7422 77.1515 15.7204 77.5112L15.261 77.0686C15.2679 76.6598 15.2581 76.1658 15.2316 75.5865C15.2185 75.02 15.1909 74.2751 15.1488 73.3519C15.1192 72.4233 15.0718 71.244 15.0066 69.8138L15.466 70.2564C15.5737 71.5026 15.7714 72.7661 16.0589 74.047C16.359 75.3226 16.7765 76.521 17.3113 77.6421C17.8595 78.7761 18.5597 79.7536 19.4119 80.5747C19.878 81.0237 20.2858 81.3128 20.6354 81.442C20.9975 81.5658 21.2814 81.5105 21.4872 81.2761C21.6929 81.0416 21.7805 80.5894 21.7499 79.9196C21.7153 79.1593 21.552 78.3702 21.2601 77.5525C20.9815 76.7475 20.6047 75.8825 20.1297 74.9575C19.6679 74.0454 19.1326 73.0536 18.5236 71.9822C17.8722 70.8181 17.2607 69.6924 16.6892 68.6052C16.1176 67.518 15.6489 66.4519 15.283 65.4071C14.9304 64.3751 14.7314 63.3612 14.686 62.3655C14.634 61.225 14.7979 60.4916 15.1776 60.1652C15.5699 59.8335 16.0977 59.8228 16.7611 60.1331C17.437 60.4382 18.1611 60.9628 18.9334 61.7069Z" fill="#1E1E1E"/>
<path d="M36.2087 78.3255C37.1142 79.1979 37.8611 80.0819 38.4493 80.9775C39.0376 81.8732 39.5692 82.7835 40.0442 83.7084C40.2114 84.0253 40.3483 84.2351 40.4548 84.3377C40.7078 84.5815 40.8495 84.1987 40.8799 83.1895L41.3392 83.6321C41.3448 84.3125 41.3641 85.1532 41.397 86.1541C41.4291 87.137 41.4831 88.4611 41.559 90.1266L41.0997 89.684C40.9569 88.508 40.7675 87.4255 40.5314 86.4365C40.3079 85.4423 39.9232 84.4053 39.3775 83.3257C39.039 82.6014 38.6246 81.8907 38.1345 81.1935C37.6578 80.5091 37.1797 79.936 36.7003 79.4741C35.968 78.7685 35.3541 78.428 34.8588 78.4527C34.3626 78.4592 33.9683 78.7457 33.6758 79.312C33.3834 79.8783 33.1829 80.6457 33.0743 81.6141C32.9648 82.5645 32.9374 83.637 32.9919 84.8318C33.1405 88.0904 33.5752 90.7853 34.2962 92.9165C35.0305 95.0605 36.0169 96.7291 37.2552 97.9222C37.5748 98.2301 37.8519 98.4452 38.0866 98.5676C38.3214 98.6899 38.5087 98.7492 38.6485 98.7455C38.8267 98.744 38.9445 98.6758 39.002 98.5409C39.0587 98.3878 39.0792 98.1392 39.0635 97.7953L38.9421 95.1341C38.9042 94.3014 38.8228 93.6345 38.6981 93.1336C38.5859 92.6275 38.3801 92.1608 38.0805 91.7338C37.781 91.3067 37.3512 90.8147 36.7911 90.2578L36.7663 89.7147C37.0468 90.0022 37.3805 90.341 37.7675 90.7312C38.1669 91.1161 38.5801 91.5228 39.0071 91.9515C39.4331 92.362 39.826 92.7405 40.1855 93.0869C40.7447 93.6257 41.257 94.1106 41.7222 94.5415C42.1874 94.9724 42.5661 95.3199 42.8582 95.5841L42.8829 96.1272C42.6308 95.9015 42.4406 95.7789 42.3124 95.7592C42.1975 95.7523 42.1209 95.8862 42.0825 96.1607C42.0574 96.4481 42.0601 96.9267 42.0906 97.5965L42.3358 102.973L41.9364 102.588C41.909 102.268 41.8405 101.881 41.7308 101.43C41.6344 100.991 41.4863 100.675 41.2866 100.482C41.1934 100.393 41.0685 100.307 40.912 100.225C40.768 100.139 40.542 100.068 40.234 100.013C39.7587 99.9189 39.2542 99.7444 38.7207 99.49C38.1863 99.2174 37.6195 98.7925 37.0203 98.2152C35.4757 96.727 34.153 95.0805 33.0523 93.2757C31.9516 91.4709 31.0952 89.5814 30.4832 87.6071C29.8837 85.6276 29.5373 83.615 29.444 81.5693C29.3499 79.5056 29.5744 78.0084 30.1176 77.0779C30.6741 76.1602 31.4722 75.7956 32.512 75.9839C33.565 76.1851 34.7973 76.9656 36.2087 78.3255Z" fill="#1E1E1E"/>
<path d="M63.8761 105.346L63.9009 105.889C63.4756 105.497 63.1594 105.261 62.9521 105.183C62.744 105.086 62.6074 105.162 62.5424 105.411C62.4899 105.655 62.4789 106.111 62.5094 106.781L63.1236 120.25C63.1534 120.902 63.2089 121.423 63.2904 121.813C63.3851 122.215 63.5415 122.574 63.7595 122.888C63.9775 123.202 64.3004 123.582 64.7281 124.029L64.7529 124.572C64.3784 124.176 63.9049 123.703 63.3323 123.151C62.7722 122.594 62.1993 122.033 61.6134 121.469C60.9742 120.853 60.3754 120.285 59.817 119.764C59.2578 119.225 58.8059 118.807 58.4613 118.51L58.4365 117.967C58.8876 118.367 59.2239 118.621 59.4453 118.731C59.68 118.853 59.8299 118.79 59.8949 118.541C59.9599 118.292 59.9776 117.842 59.9479 117.19L59.2779 102.5L59.4177 102.634L55.2668 115.458L54.9472 115.15L48.757 92.4665L49.3501 105.474C49.3955 106.469 49.4706 107.277 49.5752 107.897C49.6791 108.499 49.8695 109.046 50.1465 109.538C50.4361 110.025 50.8759 110.596 51.4659 111.251L51.4906 111.794C51.236 111.514 50.9023 111.175 50.4895 110.777C50.0759 110.361 49.6893 109.98 49.3298 109.634C49.0235 109.339 48.711 109.046 48.3923 108.757C48.0727 108.449 47.8072 108.21 47.5958 108.041L47.5711 107.498C47.993 107.818 48.3056 107.972 48.5087 107.96C48.7119 107.948 48.8356 107.73 48.8799 107.305C48.9367 106.875 48.9452 106.226 48.9056 105.357L48.3483 93.1373C48.3178 92.4674 48.2556 91.9402 48.1616 91.5554C48.0802 91.1654 47.9238 90.8071 47.6925 90.4804C47.4737 90.1484 47.1575 89.7745 46.7439 89.3586L46.7191 88.8156C46.933 89.0389 47.2001 89.3136 47.5205 89.6396C47.8409 89.9656 48.1542 90.2762 48.4605 90.5712C49.033 91.1229 49.5919 91.6527 50.137 92.1606C50.6954 92.6813 51.1873 93.1379 51.6125 93.5303L56.4348 111.339L55.9639 111.482L59.3259 101.04C59.5523 101.258 59.7853 101.483 60.025 101.714C60.2647 101.944 60.5044 102.175 60.7441 102.406C61.3299 102.971 61.9021 103.513 62.4605 104.034C63.0323 104.568 63.5041 105.005 63.8761 105.346Z" fill="#1E1E1E"/>
</svg>
