<svg width="100" height="100" viewBox="0 0 100 100" fill="none" xmlns="http://www.w3.org/2000/svg">
<path d="M95 50C95 74.8528 74.8528 95 50 95C25.1472 95 5 74.8528 5 50C5 25.1472 25.1472 5 50 5C74.8528 5 95 25.1472 95 50Z" stroke="black" stroke-width="8"/>
<path d="M46 24C46 21.7909 47.7909 20 50 20C52.2091 20 54 21.7909 54 24V76C54 78.2091 52.2091 80 50 80C47.7909 80 46 78.2091 46 76V24Z" fill="black"/>
<path d="M76 46C78.2091 46 80 47.7909 80 50C80 52.2091 78.2091 54 76 54L24 54C21.7909 54 20 52.2091 20 50C20 47.7909 21.7909 46 24 46L76 46Z" fill="black"/>
</svg>
